<svg width="1530" height="1529" xmlns="http://www.w3.org/2000/svg" xmlns:xlink="http://www.w3.org/1999/xlink" overflow="hidden"><defs><clipPath id="clip0"><rect x="1031" y="192" width="1530" height="1529"/></clipPath><clipPath id="clip1"><rect x="1416" y="665" width="764" height="655"/></clipPath><clipPath id="clip2"><rect x="1416" y="665" width="764" height="655"/></clipPath><clipPath id="clip3"><rect x="1416" y="665" width="764" height="655"/></clipPath></defs><g clip-path="url(#clip0)" transform="translate(-1031 -192)"><path d="M893.669 373.809C1017.13 412.601 1115.35 506.878 1159.17 628.642L1110.12 599.495C1095.63 589.511 1075.8 593.16 1065.81 607.644 1055.83 622.129 1059.48 641.965 1073.96 651.95 1075.33 652.893 1076.77 653.726 1078.26 654.444L1189.75 720.541C1195.4 725.073 1202.42 727.543 1209.66 727.549L1210.46 727.549 1213.01 727.549 1214.28 727.549 1214.28 727.549 1216.83 727.549C1224.99 725.429 1231.98 720.159 1236.26 712.896L1306.02 595.514C1313.63 579.652 1306.94 560.625 1291.07 553.017 1276.94 546.237 1259.97 550.751 1251.07 563.659L1221.61 613.83 1221.61 613.83C1184.79 506.244 1110.73 415.358 1012.8 357.563 981.201 338.963 947.593 324.003 912.622 312.967 895.82 307.734 877.958 317.11 872.724 333.911 867.491 350.713 876.867 368.575 893.669 373.809Z" transform="matrix(1.00065 0 0 1 1031 192)"/><path d="M304.844 878.538C308.246 892.933 321.111 903.093 335.902 903.066 338.374 903.051 340.835 902.73 343.229 902.11 360.065 897.802 370.341 880.793 366.323 863.885 342.042 759.714 359.175 650.185 414.104 558.404 426.824 536.873 441.429 516.512 457.744 497.562L458.7 498.518 458.7 556.811C458.7 574.404 472.961 588.665 490.554 588.665 508.147 588.665 522.408 574.404 522.408 556.811L523.682 421.749C523.682 404.156 509.421 389.895 491.828 389.895L356.607 388.621C339.014 388.621 324.753 402.882 324.753 420.475 324.753 438.068 339.014 452.329 356.607 452.329L413.149 452.329C392.603 474.957 374.258 499.489 358.359 525.594 295.336 631.818 276.142 758.406 304.844 878.538Z" transform="matrix(1.00065 0 0 1 1031 192)"/><path d="M1054.69 1069.5C957.869 1160.85 823.126 1200.23 692.35 1175.42L692.35 1175.42 742.998 1146.75C758.26 1137.95 763.501 1118.45 754.705 1103.19 745.908 1087.93 726.406 1082.69 711.144 1091.48L594.08 1157.9C578.781 1166.58 573.42 1186.03 582.105 1201.33 582.114 1201.34 582.125 1201.36 582.135 1201.38L649.188 1318.76C657.984 1334.07 677.522 1339.35 692.828 1330.55 708.134 1321.75 713.411 1302.21 704.614 1286.91L676.105 1237.22C828.434 1267.88 986.159 1222.55 1098.97 1115.69 1112.22 1104.13 1113.6 1084 1102.03 1070.75 1090.47 1057.49 1070.34 1056.12 1057.09 1067.69 1056.42 1068.26 1055.78 1068.87 1055.17 1069.5Z" transform="matrix(1.00065 0 0 1 1031 192)"/><path d="M541.521 1045.45C541.521 1115.82 484.474 1172.87 414.104 1172.87 343.734 1172.87 286.688 1115.82 286.688 1045.45 286.688 975.083 343.734 918.037 414.104 918.037 484.474 918.037 541.521 975.083 541.521 1045.45Z" transform="matrix(1.00065 0 0 1 1031 192)"/><path d="M1313.98 936.512C1313.98 1006.88 1256.94 1063.93 1186.57 1063.93 1116.2 1063.93 1059.15 1006.88 1059.15 936.513 1059.15 866.142 1116.2 809.096 1186.57 809.096 1256.94 809.096 1313.98 866.142 1313.98 936.512Z" transform="matrix(1.00065 0 0 1 1031 192)"/><path d="M840.154 328.257C840.154 398.627 783.107 455.674 712.737 455.674 642.367 455.674 585.32 398.627 585.32 328.257 585.32 257.887 642.367 200.841 712.737 200.841 783.107 200.841 840.154 257.887 840.154 328.257Z" transform="matrix(1.00065 0 0 1 1031 192)"/><g clip-path="url(#clip1)"><g clip-path="url(#clip2)"><g clip-path="url(#clip3)"><path d="M620.885 551.694C583.236 543.459 482.1 525.133 327.814 525.133 172.872 525.133 71.7361 543.554 34.1146 551.837L34.1146 565.804 35.602 565.476C71.6406 557.432 172.32 538.778 327.814 538.778 482.639 538.778 583.318 557.35 619.411 565.333L620.885 565.661Z" transform="matrix(1.16336 0 0 1 1417 665)"/><path d="M620.885 483.465C606.312 480.279 582.199 475.598 549.245 471.04L549.245 402.368C562.523 402.085 575.189 396.728 584.642 387.398L584.642 387.398C599.066 371.023 596.923 342.231 596.848 341.002L596.418 335.653 591.117 334.807C590.926 334.807 589.923 334.63 588.388 334.507 594.953 321.793 597.89 307.516 596.875 293.242L596.446 287.893 591.144 287.047C590.953 287.047 589.95 286.869 588.415 286.747 594.98 274.032 597.917 259.755 596.903 245.482L596.473 240.132 591.171 239.286C590.98 239.286 589.977 239.109 588.442 238.986 594.919 226.602 597.876 212.678 596.991 198.731 596.991 198.56 597.087 198.417 597.087 198.24L597.087 143.281C597.087 139.513 594.032 136.458 590.264 136.458 586.496 136.458 583.441 139.513 583.441 143.281L583.441 191.042C578.156 191.053 572.899 191.806 567.823 193.28 568.854 189.718 569.515 186.06 569.795 182.363 569.795 163.552 555.01 146.345 549.327 140.422L549.327 95.5208C549.327 91.7525 546.272 88.6979 542.504 88.6979 538.735 88.6979 535.681 91.7525 535.681 95.5208L535.681 140.463C530.004 146.392 515.212 163.661 515.212 182.868 515.46 186.363 516.031 189.828 516.918 193.218 511.945 191.793 506.8 191.061 501.628 191.042L501.628 143.281C501.628 139.513 498.573 136.458 494.805 136.458 491.036 136.458 487.982 139.513 487.982 143.281L487.982 198.056C486.995 212.225 489.939 226.39 496.49 238.993 494.927 239.123 493.924 239.266 493.761 239.293L488.459 240.139 488.029 245.488C487.015 259.762 489.952 274.039 496.517 286.753 494.955 286.883 493.952 287.026 493.788 287.054L488.487 287.9 488.057 293.249C487.042 307.522 489.979 321.799 496.544 334.514 494.982 334.637 493.979 334.787 493.815 334.814L488.514 335.66 488.084 341.009C487.989 342.231 485.867 371.03 500.283 387.405L500.283 387.405C509.717 396.713 522.35 402.066 535.599 402.368L535.599 469.232C500.768 464.804 457.354 460.731 405.963 458.561L405.963 388.722C419.242 388.439 431.908 383.082 441.361 373.752L441.361 373.752C455.784 357.377 453.642 328.585 453.567 327.357L453.137 322.007 447.836 321.161C447.645 321.161 446.642 320.984 445.107 320.861 451.672 308.147 454.608 293.87 453.594 279.596L453.164 274.247 447.863 273.401C447.672 273.401 446.669 273.224 445.134 273.101 451.699 260.386 454.636 246.109 453.622 231.836L453.192 226.487 447.89 225.641C447.699 225.641 446.696 225.463 445.161 225.34 451.638 212.956 454.595 199.033 453.71 185.085 453.71 184.915 453.806 184.771 453.806 184.594L453.806 129.635C453.806 125.867 450.751 122.812 446.983 122.812 443.215 122.812 440.16 125.867 440.16 129.635L440.16 177.396C434.875 177.404 429.617 178.157 424.542 179.634 425.573 176.072 426.234 172.414 426.514 168.717 426.514 149.906 411.729 132.699 406.045 126.777L406.045 81.875C406.045 78.1067 402.991 75.0521 399.222 75.0521 395.454 75.0521 392.4 78.1067 392.4 81.875L392.4 126.818C386.723 132.747 371.931 150.015 371.931 169.222 372.182 172.717 372.753 176.181 373.636 179.572 368.663 178.15 363.519 177.418 358.346 177.396L358.346 129.635C358.346 125.867 355.292 122.812 351.523 122.812 347.755 122.812 344.701 125.867 344.701 129.635L344.701 184.41C343.714 198.579 346.658 212.745 353.209 225.347 351.646 225.477 350.643 225.62 350.479 225.647L345.178 226.493 344.748 231.843C343.734 246.116 346.671 260.393 353.236 273.108 351.673 273.237 350.671 273.381 350.507 273.408L345.205 274.254 344.776 279.603C343.762 293.879 346.698 308.158 353.263 320.875 351.701 320.998 350.698 321.141 350.534 321.168L345.233 322.014 344.803 327.363C344.707 328.585 342.585 357.384 357.002 373.759L357.002 373.759C366.436 383.067 379.069 388.42 392.318 388.722L392.318 458.043C371.944 457.36 350.527 456.903 327.814 456.903 304.868 456.903 283.246 457.347 262.682 458.063L262.682 388.722C275.961 388.439 288.626 383.082 298.079 373.752L298.079 373.752C312.503 357.377 310.361 328.585 310.286 327.357L309.856 322.007 304.554 321.161C304.363 321.161 303.36 320.984 301.825 320.861 308.39 308.147 311.327 293.87 310.313 279.596L309.883 274.247 304.582 273.401C304.391 273.401 303.388 273.224 301.853 273.101 308.418 260.386 311.355 246.109 310.34 231.836L309.91 226.487 304.609 225.641C304.418 225.641 303.415 225.463 301.88 225.34 308.357 212.956 311.314 199.033 310.429 185.085 310.429 184.915 310.525 184.771 310.525 184.594L310.525 129.635C310.525 125.867 307.47 122.812 303.702 122.812 299.933 122.812 296.879 125.867 296.879 129.635L296.879 177.396C291.594 177.404 286.336 178.157 281.261 179.634 282.291 176.072 282.952 172.414 283.233 168.717 283.233 149.906 268.448 132.699 262.764 126.777L262.764 81.875C262.764 78.1067 259.71 75.0521 255.941 75.0521 252.173 75.0521 249.118 78.1067 249.118 81.875L249.118 126.818C243.442 132.747 228.65 150.015 228.65 169.222 228.901 172.717 229.472 176.181 230.355 179.572 225.382 178.15 220.238 177.418 215.065 177.396L215.065 129.635C215.065 125.867 212.01 122.812 208.242 122.812 204.474 122.812 201.419 125.867 201.419 129.635L201.419 184.41C200.433 198.579 203.377 212.745 209.927 225.347 208.365 225.477 207.362 225.62 207.198 225.647L201.897 226.493 201.467 231.843C200.452 246.116 203.39 260.393 209.955 273.108 208.392 273.237 207.389 273.381 207.226 273.408L201.924 274.254 201.494 279.603C200.48 293.879 203.417 308.158 209.982 320.875 208.42 320.998 207.417 321.141 207.253 321.168L201.951 322.014 201.522 327.363C201.426 328.585 199.304 357.384 213.721 373.759L213.721 373.759C223.154 383.067 235.788 388.42 249.036 388.722L249.036 458.568C197.612 460.751 154.198 464.838 119.401 469.287L119.401 402.368C132.68 402.085 145.345 396.728 154.798 387.398L154.798 387.398C169.222 371.023 167.08 342.231 167.004 341.002L166.575 335.653 161.273 334.807C161.082 334.807 160.079 334.63 158.544 334.507 165.109 321.793 168.046 307.516 167.032 293.242L166.602 287.893 161.301 287.047C161.109 287.047 160.107 286.869 158.571 286.747 165.136 274.032 168.073 259.755 167.059 245.482L166.629 240.132 161.328 239.286C161.137 239.286 160.134 239.109 158.599 238.986 165.076 226.602 168.033 212.678 167.148 198.731 167.148 198.56 167.243 198.417 167.243 198.24L167.243 143.281C167.243 139.513 164.189 136.458 160.42 136.458 156.652 136.458 153.597 139.513 153.597 143.281L153.597 191.042C148.312 191.053 143.055 191.806 137.98 193.28 139.01 189.718 139.671 186.06 139.952 182.363 139.952 163.552 125.166 146.345 119.483 140.422L119.483 95.5208C119.483 91.7525 116.428 88.6979 112.66 88.6979 108.892 88.6979 105.837 91.7525 105.837 95.5208L105.837 140.463C100.16 146.392 85.3683 163.661 85.3683 182.868 85.616 186.363 86.1871 189.828 87.074 193.218 82.1015 191.793 76.9563 191.061 71.7839 191.042L71.7839 143.281C71.7839 139.513 68.7293 136.458 64.961 136.458 61.1927 136.458 58.1381 139.513 58.1381 143.281L58.1381 198.056C57.1516 212.225 60.0958 226.39 66.6462 238.993 65.0838 239.123 64.0808 239.266 63.9171 239.293L58.6157 240.139 58.1858 245.488C57.1716 259.762 60.1082 274.039 66.6735 286.753 65.1111 286.883 64.1081 287.026 63.9444 287.054L58.643 287.9 58.2131 293.249C57.1989 307.522 60.1355 321.799 66.7008 334.514 65.1384 334.637 64.1354 334.787 63.9717 334.814L58.6702 335.66 58.2404 341.009C58.1449 342.231 56.023 371.03 70.4398 387.405L70.4398 387.405C79.8731 396.713 92.5064 402.066 105.755 402.368L105.755 471.115C72.78 475.7 48.6747 480.408 34.1146 483.608L34.1146 497.575 35.602 497.247C71.6406 489.203 172.32 470.549 327.814 470.549 482.639 470.549 583.318 489.121 619.411 497.104L620.885 497.431ZM144.557 378.392C137.807 384.753 128.959 388.418 119.688 388.695 120.472 379.143 123.065 364.685 129.922 356.859 136.217 350.758 144.76 347.539 153.516 347.969 153.864 358.803 150.724 369.463 144.557 378.378ZM144.557 330.632C137.807 336.993 128.959 340.658 119.688 340.934 120.472 331.382 123.065 316.924 129.922 309.099 136.217 302.997 144.76 299.778 153.516 300.208 153.864 311.043 150.724 321.702 144.557 330.618ZM144.557 282.871C137.807 289.232 128.959 292.898 119.688 293.174 120.472 283.622 123.065 269.164 129.922 261.338 136.217 255.237 144.76 252.018 153.516 252.448 153.864 263.283 150.724 273.942 144.557 282.858ZM153.516 204.687C153.868 215.517 150.735 226.175 144.578 235.09 137.827 241.451 128.979 245.117 119.708 245.393 120.493 235.841 123.085 221.383 129.942 213.557 136.236 207.469 144.769 204.258 153.516 204.687ZM80.5991 378.378C74.4346 369.462 71.2947 358.803 71.6406 347.969 80.3753 347.548 88.8944 350.759 95.1797 356.838 102.064 364.658 104.664 379.095 105.414 388.654 96.1697 388.351 87.3511 384.7 80.5991 378.378ZM80.5991 330.618C74.4346 321.702 71.2947 311.042 71.6406 300.208 80.3753 299.788 88.8944 302.998 95.1797 309.078 102.064 316.897 104.664 331.334 105.414 340.893 96.1697 340.591 87.3511 336.939 80.5991 330.618ZM80.5991 282.858C74.4346 273.941 71.2947 263.282 71.6406 252.448 80.3753 252.028 88.8944 255.238 95.1797 261.318 102.064 269.137 104.664 283.574 105.414 293.133 96.1697 292.831 87.3511 289.179 80.5991 282.858ZM80.5991 235.097C74.4346 226.181 71.2947 215.522 71.6406 204.687 80.3753 204.267 88.8944 207.477 95.1797 213.557 102.064 221.376 104.664 235.814 105.414 245.372 96.1697 245.07 87.3511 241.419 80.5991 235.097ZM109.576 206.229C103.19 199.881 99.3955 191.383 98.9323 182.39 100.173 171.446 104.966 161.21 112.578 153.249 118.002 159.554 126.224 170.921 126.224 181.906 125.401 191.31 121.399 200.154 114.877 206.98 113.077 207.361 111.2 207.096 109.576 206.229ZM287.838 364.733C281.088 371.094 272.24 374.759 262.969 375.035 263.753 365.483 266.346 351.025 273.203 343.199 279.501 337.103 288.043 333.89 296.797 334.323 297.145 345.158 294.005 355.817 287.838 364.733ZM287.838 316.972C281.088 323.333 272.24 326.998 262.969 327.275 263.753 317.723 266.346 303.265 273.203 295.439 279.501 289.343 288.043 286.129 296.797 286.562 297.145 297.397 294.005 308.057 287.838 316.972ZM287.838 269.212C281.088 275.573 272.24 279.238 262.969 279.514 263.753 269.962 266.346 255.505 273.203 247.679 279.501 241.582 288.043 238.369 296.797 238.802 297.145 249.637 294.005 260.296 287.838 269.212ZM296.797 191.042C297.15 201.872 294.016 212.529 287.859 221.445 281.108 227.806 272.26 231.471 262.989 231.747 263.774 222.195 266.367 207.737 273.224 199.911 279.517 193.823 288.051 190.612 296.797 191.042ZM223.88 364.733C217.716 355.816 214.576 345.157 214.922 334.323 223.657 333.903 232.176 337.113 238.461 343.193 245.345 351.012 247.945 365.449 248.729 375.008 239.473 374.714 230.641 371.062 223.88 364.733ZM223.88 316.972C217.716 308.056 214.576 297.397 214.922 286.562 223.657 286.142 232.176 289.352 238.461 295.432 245.345 303.251 247.945 317.689 248.729 327.247 239.473 326.953 230.641 323.301 223.88 316.972ZM223.88 269.212C217.716 260.296 214.576 249.636 214.922 238.802 223.657 238.382 232.176 241.592 238.461 247.672 245.345 255.491 247.945 269.928 248.729 279.487 239.473 279.193 230.641 275.541 223.88 269.212ZM223.88 221.451C217.716 212.535 214.576 201.876 214.922 191.042 223.657 190.621 232.176 193.832 238.461 199.911 245.345 207.73 247.945 222.168 248.729 231.727 239.473 231.433 230.641 227.78 223.88 221.451ZM252.857 192.584C246.471 186.236 242.677 177.737 242.213 168.744 243.454 157.8 248.247 147.564 255.859 139.604 261.318 145.908 269.505 157.275 269.505 168.26 268.682 177.665 264.68 186.508 258.159 193.334 256.358 193.712 254.482 193.447 252.857 192.584ZM431.12 364.733C424.369 371.094 415.521 374.759 406.25 375.035 407.035 365.483 409.627 351.025 416.484 343.199 422.782 337.103 431.324 333.89 440.078 334.323 440.427 345.158 437.286 355.817 431.12 364.733ZM431.12 316.972C424.369 323.333 415.521 326.998 406.25 327.275 407.035 317.723 409.627 303.265 416.484 295.439 422.782 289.343 431.324 286.129 440.078 286.562 440.427 297.397 437.286 308.057 431.12 316.972ZM431.12 269.212C424.369 275.573 415.521 279.238 406.25 279.514 407.035 269.962 409.627 255.505 416.484 247.679 422.782 241.582 431.324 238.369 440.078 238.802 440.427 249.637 437.286 260.296 431.12 269.212ZM440.078 191.042C440.431 201.872 437.298 212.529 431.14 221.445 424.389 227.806 415.541 231.471 406.27 231.747 407.055 222.195 409.648 207.737 416.505 199.911 422.798 193.823 431.332 190.612 440.078 191.042ZM367.162 364.733C360.997 355.816 357.857 345.157 358.203 334.323 366.938 333.903 375.457 337.113 381.742 343.193 388.626 351.012 391.226 365.449 392.011 375.008 382.755 374.714 373.922 371.062 367.162 364.733ZM367.162 316.972C360.997 308.056 357.857 297.397 358.203 286.562 366.938 286.142 375.457 289.352 381.742 295.432 388.626 303.251 391.226 317.689 392.011 327.247 382.755 326.953 373.922 323.301 367.162 316.972ZM367.162 269.212C360.997 260.296 357.857 249.636 358.203 238.802 366.938 238.382 375.457 241.592 381.742 247.672 388.626 255.491 391.226 269.928 392.011 279.487 382.755 279.193 373.922 275.541 367.162 269.212ZM367.162 221.451C360.997 212.535 357.857 201.876 358.203 191.042 366.938 190.621 375.457 193.832 381.742 199.911 388.626 207.73 391.226 222.168 392.011 231.727 382.755 231.433 373.922 227.78 367.162 221.451ZM396.138 192.584C389.752 186.236 385.958 177.737 385.495 168.744 386.735 157.8 391.528 147.564 399.141 139.604 404.599 145.908 412.786 157.275 412.786 168.26 411.964 177.665 407.961 186.508 401.44 193.334 399.639 193.712 397.763 193.447 396.138 192.584ZM574.401 378.378C567.65 384.739 558.802 388.405 549.531 388.681 550.316 379.129 552.943 364.671 559.766 356.845 566.063 350.749 574.605 347.535 583.359 347.969 583.708 358.803 580.567 369.463 574.401 378.378ZM574.401 330.618C567.65 336.979 558.802 340.644 549.531 340.921 550.316 331.369 552.943 316.911 559.766 309.085 566.063 302.989 574.605 299.775 583.359 300.208 583.708 311.043 580.567 321.702 574.401 330.618ZM574.401 282.858C567.65 289.219 558.802 292.884 549.531 293.16 550.316 283.608 552.943 269.15 559.766 261.324 566.063 255.228 574.605 252.015 583.359 252.448 583.708 263.283 580.567 273.942 574.401 282.858ZM583.359 204.687C583.712 215.517 580.579 226.175 574.421 235.09 567.671 241.451 558.823 245.117 549.552 245.393 550.336 235.841 552.963 221.383 559.786 213.557 566.08 207.469 574.613 204.258 583.359 204.687ZM510.443 378.378C504.278 369.462 501.138 358.803 501.484 347.969 510.219 347.548 518.738 350.759 525.023 356.838 531.908 364.658 534.507 379.095 535.292 388.654 526.036 388.36 517.204 384.707 510.443 378.378ZM510.443 330.618C504.278 321.702 501.138 311.042 501.484 300.208 510.219 299.788 518.738 302.998 525.023 309.078 531.908 316.897 534.507 331.334 535.292 340.893 526.036 340.599 517.204 336.947 510.443 330.618ZM510.443 282.858C504.278 273.941 501.138 263.282 501.484 252.448 510.219 252.028 518.738 255.238 525.023 261.318 531.908 269.137 534.507 283.574 535.292 293.133 526.036 292.839 517.204 289.187 510.443 282.858ZM510.443 235.097C504.278 226.181 501.138 215.522 501.484 204.687 510.219 204.267 518.738 207.477 525.023 213.557 531.908 221.376 534.507 235.814 535.292 245.372 526.036 245.078 517.204 241.426 510.443 235.097ZM539.42 206.229C533.033 199.881 529.239 191.383 528.776 182.39 530.016 171.446 534.809 161.21 542.422 153.249 547.88 159.554 556.068 170.921 556.068 181.906 555.245 191.31 551.242 200.154 544.721 206.98 542.92 207.361 541.044 207.096 539.42 206.229Z" transform="matrix(1.16336 0 0 1 1417 665)"/></g></g></g></g></svg>